<svg width="128" height="128" viewBox="0 0 128 128" fill="none" xmlns="http://www.w3.org/2000/svg">
<g clip-path="url(#clip0_1291_43)">
<path d="M96 0H32C14.3269 0 0 14.3269 0 32V96C0 113.673 14.3269 128 32 128H96C113.673 128 128 113.673 128 96V32C128 14.3269 113.673 0 96 0Z" fill="#008F12"/>
<rect x="22" y="34" width="84" height="61" rx="8" fill="white"/>
<rect x="29" y="42" width="69" height="45" rx="4" fill="#008F12"/>
<rect x="28" y="49" width="71" height="8" fill="white"/>
<path d="M93 76.0001C93 77.9331 91.433 79.5001 89.5 79.5001C87.567 79.5001 86 77.9331 86 76.0001C86 74.0671 87.567 72.5001 89.5 72.5001C91.433 72.5001 93 74.0671 93 76.0001Z" fill="white"/>
<path d="M83 76.0001C83 77.9331 81.433 79.5001 79.5 79.5001C77.567 79.5001 76 77.9331 76 76.0001C76 74.0671 77.567 72.5001 79.5 72.5001C81.433 72.5001 83 74.0671 83 76.0001Z" fill="white"/>
<path d="M73 76.0001C73 77.9331 71.433 79.5001 69.5 79.5001C67.567 79.5001 66 77.9331 66 76.0001C66 74.0671 67.567 72.5001 69.5 72.5001C71.433 72.5001 73 74.0671 73 76.0001Z" fill="white"/>
<rect x="37" y="73" width="21" height="7" rx="3.5" fill="#FFF9F9"/>
</g>
<defs>
<clipPath id="clip0_1291_43">
<rect width="128" height="128" fill="white"/>
</clipPath>
</defs>
</svg>
