<svg width="128" height="128" viewBox="0 0 128 128" fill="none" xmlns="http://www.w3.org/2000/svg">
<rect width="128" height="128" rx="32" fill="#008F12"/>
<path d="M14.6875 78V51.8182H33.5568V57.5455H21.7955V62.0455H32.5852V67.7727H21.7955V72.2727H33.5057V78H14.6875ZM37.082 78V51.8182H48.3832C50.3263 51.8182 52.0266 52.2017 53.484 52.9688C54.9414 53.7358 56.0749 54.8139 56.8846 56.2031C57.6942 57.5923 58.0991 59.2159 58.0991 61.0739C58.0991 62.9489 57.6815 64.5724 56.8462 65.9446C56.0195 67.3168 54.8562 68.3736 53.3562 69.1151C51.8647 69.8565 50.1218 70.2273 48.1275 70.2273H41.3775V64.7045H46.6957C47.5309 64.7045 48.2425 64.5597 48.8306 64.2699C49.4272 63.9716 49.8832 63.5497 50.1985 63.0043C50.5224 62.4588 50.6843 61.8153 50.6843 61.0739C50.6843 60.3239 50.5224 59.6847 50.1985 59.1562C49.8832 58.6193 49.4272 58.2102 48.8306 57.929C48.2425 57.6392 47.5309 57.4943 46.6957 57.4943H44.19V78H37.082ZM60.707 51.8182H67.815V65.5227H68.0195L77.3264 51.8182H83.3604V78H76.2525V64.2443H76.0991L66.6388 78H60.707V51.8182ZM110.757 51.8182V78H103.751V57.4432H94.9045V78H87.8988V51.8182H110.757Z" fill="white"/>
</svg>
