<svg width="27" height="27" viewBox="0 0 27 27" fill="none" xmlns="http://www.w3.org/2000/svg">
<path d="M21.1105 11.6493L13.1562 2.96703C12.5134 2.20831 12.6065 1.07144 13.3643 0.42779C14.122 -0.21586 15.2574 -0.122593 15.9003 0.636129L26.4779 12.1819C26.63 12.3349 26.7533 12.5141 26.8418 12.711C26.9518 12.9558 27.0057 13.222 26.9995 13.4904L26.9995 13.492C26.9934 13.7597 26.9279 14.0227 26.8077 14.262C26.7961 14.2852 26.7839 14.3081 26.7712 14.3307C26.6979 14.4621 26.6083 14.5836 26.5046 14.6925L15.6456 26.4231C14.9701 27.1528 13.8317 27.1961 13.103 26.5197C12.3742 25.8434 12.331 24.7035 13.0065 23.9738L21.0798 15.2524L1.79925 15.2524C0.805553 15.2524 0 14.4458 0 13.4508C0 12.4558 0.805553 11.6492 1.79925 11.6492L21.1105 11.6492V11.6493Z" fill="white"/>
</svg>
