<svg width="128" height="128" viewBox="0 0 128 128" fill="none" xmlns="http://www.w3.org/2000/svg">
<path d="M62.3404 22.5882H44.8623V5.647C44.8623 2.52875 42.2577 0 39.0442 0H23.5288C20.3161 0 17.7107 2.52875 17.7107 5.647C17.7107 8.76575 20.3161 11.294 23.5288 11.294H33.2258V22.5882H29.0909C13.0501 22.5882 0 35.2545 0 50.8235V96C0 99.1188 2.60538 101.647 5.81813 101.647H29.3469V122.353C29.3469 125.472 31.9523 128 35.1651 128C38.3786 128 40.9832 125.471 40.9832 122.353V101.647H47.5462C46.9008 99.8795 46.5456 97.9795 46.5456 96V56.4705C46.5456 42.9902 52.6625 30.8727 62.3404 22.5882Z" fill="#008F12"/>
<path d="M93.0909 22.5881C73.8425 22.5881 58.1819 37.7876 58.1819 56.4704V95.9999C58.1819 99.1186 60.7873 101.647 64 101.647H122.182C125.395 101.647 128 99.1184 128 95.9999V56.4704C128 37.7876 112.34 22.5881 93.0909 22.5881ZM98.9091 79.0586H87.2728C84.06 79.0586 81.4547 76.5301 81.4547 73.4116C81.4547 70.2929 84.06 67.7646 87.2728 67.7646H98.9091C102.123 67.7646 104.727 70.2931 104.727 73.4116C104.727 76.5304 102.123 79.0586 98.9091 79.0586Z" fill="#008F12"/>
</svg>
