<svg width="142" height="160" viewBox="0 0 142 160" fill="none" xmlns="http://www.w3.org/2000/svg">
<path d="M84.0405 135.51C84.222 134.966 84.2844 134.503 84.2229 134.129C84.1617 133.757 84.3726 133.449 84.8563 133.212C85.3401 132.975 85.5815 132.786 85.5815 132.652C85.5815 132.516 85.9282 132.413 86.6231 132.346C87.3178 132.278 87.6645 132.243 87.6645 132.243H88.8413H89.8373H115.919C119.904 132.243 123.315 130.646 126.153 127.447C128.99 124.249 130.409 120.407 130.409 115.918V44.0802C130.409 39.5906 128.991 35.7481 126.153 32.5508C123.315 29.3531 119.904 27.7537 115.919 27.7537H86.9397C86.1546 27.7537 85.5374 27.5343 85.0835 27.0911C84.6315 26.649 84.3301 25.9853 84.1785 25.1011C84.0275 24.2169 83.9365 23.4184 83.906 22.704C83.8762 21.9902 83.8908 21.0882 83.9517 19.9999C84.0117 18.9119 84.0418 18.2318 84.0418 17.9584C84.0418 17.0742 84.3289 16.3104 84.902 15.6628C85.4758 15.018 86.1546 14.6946 86.9394 14.6946H115.919C123.103 14.6946 129.246 17.5688 134.348 23.3169C139.449 29.065 142 35.9861 142 44.0813V115.917C142 124.012 139.449 130.935 134.348 136.68C129.246 142.431 123.103 145.306 115.919 145.306H86.9384C86.1534 145.306 85.5358 145.083 85.0822 144.643C84.6302 144.2 84.3289 143.537 84.1772 142.652C84.0262 141.769 83.9352 140.966 83.9048 140.255C83.8749 139.54 83.8895 138.64 83.9504 137.552C84.011 136.462 84.0405 135.783 84.0405 135.51Z" fill="black"/>
<path d="M1.72082 75.408L50.9857 19.8966C52.132 18.6056 53.4909 17.958 55.0607 17.958C56.6305 17.958 57.9893 18.6056 59.1369 19.8966C60.2842 21.1893 60.8574 22.7215 60.8574 24.4892V53.877H101.429C102.999 53.877 104.357 54.5246 105.505 55.8156C106.652 57.1083 107.225 58.6394 107.225 60.4082V99.5924C107.225 101.361 106.652 102.892 105.505 104.184C104.356 105.474 102.998 106.124 101.429 106.124H60.8571V135.511C60.8571 137.278 60.2839 138.811 59.1366 140.103C57.9893 141.395 56.6305 142.043 55.0603 142.043C53.4909 142.043 52.132 141.395 50.9853 140.103L1.72082 84.5936C0.57352 83.2998 2.59983e-05 81.7709 2.59983e-05 80.0017C2.59983e-05 78.2333 0.57352 76.7007 1.72082 75.408Z" fill="black"/>
</svg>
