<svg width="128" height="128" viewBox="0 0 128 128" fill="none" xmlns="http://www.w3.org/2000/svg">
<path d="M127.529 60.5087C127.47 59.3512 127.41 58.2069 127.359 57.0781C126.663 42.3234 123.877 23.9608 108.393 12.8686C100.72 7.37083 91.7049 3.26507 83.0113 1.30732C72.5202 -1.05444 62.8738 -0.204684 55.1114 3.76307C48.0021 7.39708 43.3464 13.2963 39.2386 18.4996C34.3965 24.6309 30.2157 29.9254 23.0362 31.3671C16.4074 32.6966 10.3751 37.7384 6.05401 45.5614C2.20506 52.5239 0 61.2674 0 69.5467C0 88.6444 12.2131 93.0527 22.9902 96.942C26.5503 98.2272 30.2317 99.554 33.4328 101.381C37.6757 103.806 40.5905 107.492 43.6756 111.397C47.4542 116.178 51.3598 121.118 57.9589 124.207C63.3353 126.723 69.8156 128 76.7334 128C81.327 128 86.1153 127.437 90.8979 126.295C102.976 123.414 113.186 117.27 118.914 109.439C129.297 95.2397 128.357 76.7884 127.529 60.5087ZM77.0543 100.185C62.3419 100.185 50.4176 88.6679 50.4176 74.4579C50.4176 60.2479 62.3419 48.7309 77.0543 48.7309C91.764 48.7309 103.691 60.2479 103.691 74.4579C103.691 88.6679 91.7642 100.185 77.0543 100.185Z" fill="#008F12"/>
<path d="M66.7468 72.8208L58.7577 74.0851C58.8467 74.6143 61.1059 87.0618 74.6065 91.4076L77.1679 83.9886C68.5633 81.2173 66.871 73.4411 66.7468 72.8208Z" fill="#008F12"/>
</svg>
