<svg width="128" height="128" viewBox="0 0 128 128" fill="none" xmlns="http://www.w3.org/2000/svg">
<path d="M107.103 0.0807877C105.325 0.400948 103.736 1.23098 102.468 2.5116C101.389 3.59064 100.761 4.58669 100.31 5.95031C100.014 6.83963 99.9902 7.06493 99.9428 9.5906L99.8954 12.2704L98.9351 11.6538C96.1846 9.87518 91.893 7.63409 88.8343 6.37718C75.2481 0.756676 60.0614 -0.0970764 45.918 3.94637C39.5991 5.76059 33.3394 8.65384 27.8386 12.3178C14.7977 21.0095 5.42009 34.3137 1.74494 49.3492C0.689811 53.6891 0.168176 57.5784 0.0259116 62.2147C-0.0689312 65.0605 0.073333 66.0091 0.843931 67.6099C1.9939 69.9814 4.04487 71.6415 6.58192 72.2462C7.67261 72.5071 9.6406 72.5071 10.7076 72.2344C13.2091 71.6178 15.3312 69.8984 16.41 67.6099C17.062 66.2463 17.1806 65.606 17.2873 62.7246C17.4059 59.7365 17.6192 57.8392 18.129 55.278C19.8955 46.3136 24.2464 38.3335 30.9447 31.7999C33.7899 29.0134 36.2796 27.0806 39.4094 25.2189C45.3845 21.6498 51.5967 19.5629 58.781 18.6735C60.4763 18.4601 67.4236 18.4601 69.0952 18.6735C74.9991 19.4206 80.5711 21.0688 85.1592 23.4284L86.2261 23.9739L84.2107 24.045C82.4206 24.1043 82.0886 24.1399 81.2469 24.4363C79.8954 24.8988 78.7691 25.5984 77.797 26.5826C75.1651 29.2387 74.5723 33.0687 76.2795 36.3651C77.3583 38.4402 79.0299 39.8275 81.484 40.6457L82.3139 40.9303L95.829 40.9658C110.601 41.0014 110.292 41.0133 111.94 40.3137C114.027 39.4362 115.734 37.7169 116.564 35.6536C117.24 34.0054 117.24 34.0054 117.204 19.9304L117.169 7.01749L116.884 6.18746C115.876 3.17563 113.92 1.23098 111.004 0.329796C110.067 0.0333557 108.064 -0.0970764 107.103 0.0807877Z" fill="#008F12"/>
<path d="M118.164 55.5863C115.402 55.9539 112.865 57.7799 111.644 60.2582C110.933 61.7167 110.826 62.3095 110.707 65.2621C110.541 69.353 110.044 72.5901 109.036 76.2067C104.365 92.8192 90.1858 105.578 72.8533 108.756C69.439 109.384 68.4668 109.455 64.1752 109.467C59.9665 109.467 59.1722 109.408 55.9713 108.874C51.6204 108.139 46.57 106.479 42.8356 104.558L41.7686 104.013L43.784 103.942C45.5149 103.882 45.9298 103.823 46.7478 103.562C49.9251 102.519 52.2369 99.7203 52.6044 96.4595C53.0786 92.3212 50.5771 88.6216 46.4515 87.3291L45.5623 87.0564H31.7508H17.9393L17.0502 87.3291C15.5564 87.8034 14.3827 88.4912 13.375 89.4872C11.9287 90.9101 11.1344 92.4872 10.8736 94.4437C10.8024 95.0366 10.7669 99.91 10.7906 108.163C10.838 122.57 10.755 121.313 11.7864 123.4C13.6358 127.123 18.1764 128.914 22.314 127.538C23.4402 127.159 24.6139 126.412 25.5979 125.428C26.6056 124.42 27.2339 123.376 27.6963 122.001C27.969 121.159 28.0045 120.874 28.052 118.396L28.0994 115.704L28.7751 116.155C31.5493 118.028 35.7816 120.234 39.6465 121.811C53.9203 127.633 70.4822 128.096 85.1236 123.092C90.3637 121.301 95.8408 118.586 100.334 115.55C115.497 105.317 125.384 89.3212 127.542 71.5348C128.016 67.598 128.135 63.934 127.838 62.3688C127.637 61.2898 126.914 59.7127 126.214 58.7997C124.412 56.4756 121.164 55.1713 118.164 55.5863Z" fill="#008F12"/>
</svg>
